<svg width="72" height="72" viewBox="0 0 72 72" fill="none" xmlns="http://www.w3.org/2000/svg">
<rect width="70.6077" height="70.6077" rx="35.3039" transform="matrix(-1.19249e-08 1 1 1.19249e-08 0.760254 0.703125)" fill="#020E35"/>
<path d="M16.6946 37.3836C16.1599 37.1162 16.1599 36.2473 16.6946 35.98C20.8387 33.7074 25.0496 31.6354 29.5946 30.4323C30.263 30.2986 30.9314 31.0339 30.5304 31.6354C29.5946 32.9722 28.4584 34.1085 27.1216 35.111C36.4791 34.8437 46.1708 33.5737 55.3946 35.7794C56.063 35.9131 55.9293 37.0493 55.2608 36.9824C45.7028 35.7794 36.2116 36.7152 26.6536 36.8488C27.6562 37.985 28.6588 39.1213 29.6614 40.1907C30.1292 40.6586 29.8619 41.6613 29.0598 41.5945C24.6485 41.0596 20.5045 39.5892 16.6946 37.3836ZM24.6485 36.6484C24.047 36.2473 24.1806 35.111 25.1164 35.111C25.1832 35.111 25.2501 35.111 25.2501 35.111C26.0521 34.309 26.8542 33.5737 27.6563 32.7048C24.5817 33.7743 21.7076 35.111 18.8335 36.6482C21.4402 37.985 24.1138 38.9876 26.9879 39.5223C26.3195 38.7871 25.6511 37.985 24.9159 37.2497C24.6485 37.1162 24.5817 36.8488 24.6485 36.6484Z" fill="white"/>
<path d="M18.0594 37.0662L28.2975 40.2435L25.4732 36.3601C26.7677 34.8303 29.1448 31.7 28.2975 31.4176C27.4502 31.1351 21.119 35.0656 18.0594 37.0662Z" fill="white"/>
</svg>
