<svg width="128" height="42" viewBox="0 0 128 42" fill="none" xmlns="http://www.w3.org/2000/svg">
<g clip-path="url(#clip0_207_3900)">
<path d="M35.0065 13.2912C35.3135 13.6 35.7048 13.8103 36.1308 13.8954C36.5567 13.9806 36.9982 13.9369 37.3995 13.7698C37.8008 13.6028 38.1437 13.3198 38.385 12.9567C38.6263 12.5936 38.7551 12.1668 38.7551 11.7302C38.7551 11.2936 38.6263 10.8667 38.385 10.5036C38.1437 10.1406 37.8008 9.85763 37.3995 9.69049C36.9982 9.52341 36.5567 9.4797 36.1308 9.56489C35.7048 9.65009 35.3135 9.8604 35.0065 10.1692C34.5946 10.5832 34.3633 11.1447 34.3633 11.7302C34.3633 12.3157 34.5946 12.8772 35.0065 13.2912Z" fill="#FF5678"/>
<path d="M26.4424 17.4602L12.8382 31.1376C12.5491 31.4283 12.3197 31.7733 12.1631 32.1532C12.0067 32.533 11.9261 32.94 11.9261 33.3512C11.9261 33.7623 12.0065 34.1694 12.163 34.5492C12.3194 34.929 12.5488 35.2742 12.838 35.5649C13.127 35.8557 13.4703 36.0862 13.8481 36.2436C14.2259 36.401 14.6308 36.4819 15.0397 36.482C15.4486 36.482 15.8536 36.401 16.2314 36.2437C16.6092 36.0865 16.9525 35.8559 17.2416 35.5652L22.9916 29.7843C23.2239 29.6103 23.5107 29.5261 23.7997 29.5471C24.0887 29.5679 24.3605 29.6927 24.5656 29.8983C24.7947 30.1274 24.9246 30.4381 24.927 30.763C24.9294 31.0878 24.8042 31.4006 24.5785 31.633L20.3694 35.8647C19.7855 36.4518 19.4575 37.2482 19.4575 38.0784C19.4576 38.9087 19.7857 39.7049 20.3697 40.292C20.9537 40.8791 21.7458 41.2088 22.5716 41.2088C23.3975 41.2087 24.1895 40.8789 24.7734 40.2917L36.5057 28.4958C36.6181 28.3827 36.7516 28.2931 36.8986 28.2319C37.0454 28.1706 37.2029 28.1392 37.362 28.1392C37.521 28.1392 37.6784 28.1706 37.8253 28.2319C37.9722 28.2931 38.1058 28.3827 38.2182 28.4958C38.3306 28.6088 38.4198 28.743 38.4807 28.8907C38.5416 29.0384 38.5729 29.1968 38.5729 29.3567C38.5729 29.5165 38.5416 29.6748 38.4807 29.8225C38.4198 29.9703 38.3306 30.1045 38.2182 30.2175L37.4937 30.9428C36.9098 31.53 36.5818 32.3262 36.5819 33.1566C36.5819 33.9869 36.91 34.7831 37.494 35.3702C38.078 35.9572 38.87 36.287 39.6959 36.2869C40.5218 36.2869 41.3137 35.957 41.8977 35.3699L46.8184 30.4227C47.4023 29.8357 47.7305 29.0394 47.7306 28.2091C47.7306 27.3788 47.4026 26.5825 46.8186 25.9954C46.2347 25.4082 45.4427 25.0784 44.6169 25.0783C43.791 25.0783 42.999 25.408 42.415 25.9951L41.7009 26.7155C41.4738 26.9437 41.1656 27.072 40.8444 27.072C40.5232 27.0719 40.2152 26.9436 39.9881 26.7151C39.7609 26.4868 39.6335 26.177 39.6335 25.8541C39.6335 25.5311 39.7612 25.2214 39.9884 24.993L47.3436 17.602C47.9276 17.0149 48.2556 16.2185 48.2555 15.3883C48.2554 14.5579 47.9273 13.7617 47.3433 13.1747C46.7593 12.5875 45.9673 12.2578 45.1414 12.2579C44.3156 12.258 43.5236 12.5878 42.9396 13.1749L28.0612 28.1304C27.83 28.3573 27.5191 28.4834 27.196 28.4811C26.8729 28.4788 26.5637 28.3483 26.3358 28.118C26.1313 27.9114 26.0075 27.6378 25.9869 27.3471C25.9663 27.0564 26.0503 26.7679 26.2236 26.5343L35.6874 17.0208C36.2588 16.4311 36.5761 15.6389 36.5708 14.8155C36.5654 13.9923 36.2377 13.2042 35.6587 12.6221C35.0796 12.0399 34.2958 11.7105 33.477 11.7051C32.6581 11.6997 31.87 12.0187 31.2834 12.5932L29.493 14.3932C29.2629 14.5296 28.9942 14.5854 28.7292 14.5519C28.4642 14.5185 28.2176 14.3977 28.0281 14.2084C27.799 13.9793 27.6691 13.6686 27.6667 13.3437C27.6642 13.0188 27.7896 12.7061 28.0152 12.4737L35.0745 5.37593C35.6459 4.78616 35.9632 3.99386 35.9578 3.17061C35.9524 2.34727 35.6247 1.55924 35.0457 0.977085C34.4667 0.394934 33.6828 0.065512 32.864 0.0601257C32.0451 0.0547394 31.2571 0.373817 30.6705 0.948273L18.9357 12.7442C18.7086 12.9725 18.4005 13.1008 18.0793 13.1007C17.758 13.1006 17.45 12.9723 17.2229 12.7439C16.9958 12.5155 16.8682 12.2057 16.8683 11.8828C16.8684 11.5599 16.9961 11.2501 17.2232 11.0218L20.519 7.71077C20.8168 7.42214 21.0544 7.07673 21.218 6.69464C21.3816 6.31264 21.4677 5.90165 21.4715 5.4857C21.4753 5.06985 21.3966 4.65732 21.2401 4.27233C21.0835 3.88733 20.8522 3.53756 20.5597 3.24345C20.2672 2.94934 19.9193 2.71679 19.5364 2.55939C19.1534 2.40198 18.7431 2.3229 18.3294 2.32675C17.9157 2.33051 17.507 2.4172 17.127 2.58162C16.747 2.74603 16.4034 2.98491 16.1163 3.2844L8.62612 10.8142C8.04217 11.4012 7.71403 12.1975 7.71395 13.0278C7.71395 13.4388 7.7944 13.846 7.95086 14.2258C8.10732 14.6056 8.33671 14.9508 8.62586 15.2415C8.91493 15.5322 9.2582 15.7628 9.63601 15.9201C10.0137 16.0775 10.4187 16.1585 10.8276 16.1586C11.6534 16.1586 12.4455 15.8288 13.0295 15.2418L13.7424 14.5251C13.9694 14.2967 14.2775 14.1684 14.5987 14.1683C14.9199 14.1682 15.2281 14.2965 15.4552 14.5248C15.6824 14.7531 15.81 15.0629 15.8101 15.3858C15.8101 15.7087 15.6826 16.0185 15.4555 16.2468L8.10022 23.638C7.52885 24.2278 7.21148 25.0201 7.21686 25.8433C7.22225 26.6666 7.54988 27.4546 8.12895 28.0368C8.70802 28.6189 9.49178 28.9483 10.3107 28.9538C11.1296 28.9592 11.9176 28.6401 12.5042 28.0656L24.5319 15.9751C24.7631 15.7482 25.0741 15.6223 25.3973 15.6247C25.7204 15.6271 26.0295 15.7577 26.2573 15.988C26.4457 16.1783 26.566 16.426 26.5995 16.6924C26.633 16.9588 26.5777 17.2288 26.4424 17.4602Z" fill="#FF5678"/>
</g>
<path d="M71.628 11.264L64.348 11.656L62.836 15.436L60.764 15.156L61.408 9.64H75.604L76.276 11.124L66.14 26.86L64.208 28.792L72.832 28.232L74.4 23.892L76.528 24.312L75.884 30.5H60.484L59.616 29.016L69.976 13.196L71.628 11.264ZM85.6637 30.808C83.1997 30.808 81.361 30.0893 80.1477 28.652C78.953 27.196 78.3557 25.2173 78.3557 22.716C78.3557 21.036 78.6637 19.58 79.2797 18.348C79.9143 17.116 80.801 16.1733 81.9397 15.52C83.0783 14.8667 84.3943 14.54 85.8877 14.54C87.7543 14.54 89.1917 15.0347 90.1997 16.024C91.2077 16.9947 91.7303 18.3853 91.7677 20.196C91.7677 21.428 91.693 22.3427 91.5437 22.94H82.4437C82.5183 24.6387 82.9197 25.964 83.6477 26.916C84.3757 27.8493 85.4117 28.316 86.7557 28.316C87.4837 28.316 88.2303 28.1947 88.9957 27.952C89.7797 27.7093 90.3957 27.42 90.8437 27.084L91.5437 28.624C91.0397 29.1653 90.2183 29.6693 89.0797 30.136C87.9597 30.584 86.821 30.808 85.6637 30.808ZM87.8477 21.26C87.885 20.7373 87.9037 20.336 87.9037 20.056C87.9037 17.5733 87.073 16.332 85.4117 16.332C84.497 16.332 83.7877 16.696 83.2837 17.424C82.7797 18.152 82.4997 19.4307 82.4437 21.26H87.8477ZM92.7422 8.156L97.8662 7.54H97.9222L98.7062 8.072V16.332C99.2102 15.828 99.8262 15.408 100.554 15.072C101.301 14.7173 102.104 14.54 102.962 14.54C104.754 14.54 106.21 15.1747 107.33 16.444C108.469 17.6947 109.038 19.6173 109.038 22.212C109.038 23.8173 108.702 25.2733 108.03 26.58C107.358 27.8867 106.388 28.9227 105.118 29.688C103.868 30.4347 102.412 30.808 100.75 30.808C99.2755 30.808 97.9969 30.6867 96.9142 30.444C95.8315 30.1827 95.1409 29.9493 94.8422 29.744V9.948L92.7422 9.612V8.156ZM101.478 17.004C100.918 17.004 100.386 17.1347 99.8822 17.396C99.3969 17.6387 99.0049 17.9187 98.7062 18.236V28.456C98.8182 28.6613 99.0795 28.8293 99.4902 28.96C99.9009 29.0907 100.368 29.156 100.89 29.156C102.085 29.156 103.037 28.6053 103.746 27.504C104.474 26.384 104.838 24.732 104.838 22.548C104.838 20.6627 104.53 19.272 103.914 18.376C103.298 17.4613 102.486 17.004 101.478 17.004ZM110.051 8.156L115.175 7.54H115.231L116.015 8.072V16.332C116.519 15.828 117.135 15.408 117.863 15.072C118.609 14.7173 119.412 14.54 120.271 14.54C122.063 14.54 123.519 15.1747 124.639 16.444C125.777 17.6947 126.347 19.6173 126.347 22.212C126.347 23.8173 126.011 25.2733 125.339 26.58C124.667 27.8867 123.696 28.9227 122.427 29.688C121.176 30.4347 119.72 30.808 118.059 30.808C116.584 30.808 115.305 30.6867 114.223 30.444C113.14 30.1827 112.449 29.9493 112.151 29.744V9.948L110.051 9.612V8.156ZM118.787 17.004C118.227 17.004 117.695 17.1347 117.191 17.396C116.705 17.6387 116.313 17.9187 116.015 18.236V28.456C116.127 28.6613 116.388 28.8293 116.799 28.96C117.209 29.0907 117.676 29.156 118.199 29.156C119.393 29.156 120.345 28.6053 121.055 27.504C121.783 26.384 122.147 24.732 122.147 22.548C122.147 20.6627 121.839 19.272 121.223 18.376C120.607 17.4613 119.795 17.004 118.787 17.004Z" fill="#FF5678"/>
<defs>
<clipPath id="clip0_207_3900">
<rect width="55" height="42" fill="white"/>
</clipPath>
</defs>
</svg>
