<svg width="71" height="71" viewBox="0 0 71 71" fill="none" xmlns="http://www.w3.org/2000/svg">
<rect x="70.9761" y="0.104004" width="70.6077" height="70.6077" rx="35.3039" transform="rotate(90 70.9761 0.104004)" fill="#020E35"/>
<path d="M55.0414 36.7845C55.5761 36.5171 55.5761 35.6482 55.0414 35.3808C50.8974 33.1083 46.6865 31.0363 42.1414 29.8332C41.473 29.6995 40.8046 30.4347 41.2057 31.0363C42.1414 32.3731 43.2777 33.5093 44.6145 34.5119C35.257 34.2446 25.5653 32.9746 16.3415 35.1803C15.6731 35.314 15.8067 36.4502 16.4752 36.3833C26.0333 35.1803 35.5244 36.1161 45.0825 36.2496C44.0799 37.3859 43.0773 38.5222 42.0747 39.5916C41.6068 40.0595 41.8742 41.0622 42.6762 40.9953C47.0875 40.4605 51.2316 38.99 55.0414 36.7845ZM47.0875 36.0492C47.6891 35.6482 47.5554 34.5119 46.6197 34.5119C46.5528 34.5119 46.486 34.5119 46.486 34.5119C45.6839 33.7099 44.8818 32.9746 44.0798 32.1057C47.1544 33.1751 50.0285 34.5119 52.9026 36.0491C50.2958 37.3859 47.6222 38.3885 44.7482 38.9232C45.4166 38.188 46.0849 37.3859 46.8202 36.6506C47.0875 36.5171 47.1544 36.2496 47.0875 36.0492Z" fill="white"/>
<path d="M53.6767 36.4671L43.4385 39.6444L46.2629 35.761C44.9684 34.2312 42.5913 31.1009 43.4385 30.8184C44.2858 30.536 50.617 34.4665 53.6767 36.4671Z" fill="white"/>
</svg>
